<?xml version="1.0" encoding="UTF-8" standalone="no"?>
<!-- Created with Inkscape (http://www.inkscape.org/) -->

<svg
   width="1024"
   height="1024"
   viewBox="0 0 270.93332 270.93334"
   version="1.1"
   id="svg5"
   inkscape:version="1.2.1 (9c6d41e410, 2022-07-14)"
   sodipodi:docname="ymy-pixel-artworks.svg"
   xmlns:inkscape="http://www.inkscape.org/namespaces/inkscape"
   xmlns:sodipodi="http://sodipodi.sourceforge.net/DTD/sodipodi-0.dtd"
   xmlns="http://www.w3.org/2000/svg"
   xmlns:svg="http://www.w3.org/2000/svg">
  <sodipodi:namedview
     id="namedview7"
     pagecolor="#ffffff"
     bordercolor="#666666"
     borderopacity="1.0"
     inkscape:pageshadow="2"
     inkscape:pageopacity="0.0"
     inkscape:pagecheckerboard="0"
     inkscape:document-units="px"
     showgrid="false"
     inkscape:lockguides="true"
     units="px"
     width="500px"
     inkscape:zoom="0.41869799"
     inkscape:cx="123.00035"
     inkscape:cy="427.51578"
     inkscape:window-width="1576"
     inkscape:window-height="933"
     inkscape:window-x="0"
     inkscape:window-y="0"
     inkscape:window-maximized="1"
     inkscape:current-layer="layer1"
     inkscape:showpageshadow="0"
     inkscape:deskcolor="#d1d1d1" />
  <defs
     id="defs2" />
  <g
     inkscape:label="Layer 1"
     inkscape:groupmode="layer"
     id="layer1">
    <g
       id="g1954"
       transform="matrix(58.823524,0,0,58.823524,-1414.2655,-1938.7211)"
       inkscape:export-filename="/home/adil/ymy-pixels-logo.png"
       inkscape:export-xdpi="96"
       inkscape:export-ydpi="96">
      <g
         id="g1949" />
    </g>
    <g
       id="g2759"
       transform="matrix(1.7066665,0,0,1.7066665,73.131818,-48.433469)">
      <rect
         style="fill:#000000;stroke-width:0.111663"
         id="rect1258"
         width="3.0528829"
         height="3.0528829"
         x="22.786354"
         y="73.238846" />
      <rect
         style="fill:#000000;stroke-width:0.315833"
         id="rect1260"
         width="24.423063"
         height="3.0528829"
         x="22.786354"
         y="76.291733" />
      <rect
         style="fill:#000000;stroke-width:0.111663"
         id="rect1262"
         width="3.0528829"
         height="3.0528829"
         x="44.156536"
         y="73.238846" />
      <rect
         style="fill:#000000;stroke-width:0.157916"
         id="rect1264"
         width="6.1057658"
         height="3.0528829"
         x="47.209423"
         y="76.291733" />
      <rect
         style="fill:#000000;stroke-width:0.157916"
         id="rect1266"
         width="6.1057658"
         height="3.0528829"
         x="16.680576"
         y="76.291733" />
      <rect
         style="fill:#000000;stroke-width:0.111663"
         id="rect1268"
         width="3.0528829"
         height="3.0528829"
         x="16.680576"
         y="79.34462" />
      <rect
         style="fill:#000000;stroke-width:0.111663"
         id="rect1270"
         width="3.0528829"
         height="3.0528829"
         x="50.262306"
         y="79.34462" />
      <rect
         style="fill:#000000;stroke-width:0.353112"
         id="rect1272"
         width="30.528831"
         height="3.0528829"
         x="19.733467"
         y="82.397514" />
      <rect
         style="fill:#000000;stroke-width:0.223326"
         id="rect1274"
         width="3.0528829"
         height="12.211532"
         x="19.733467"
         y="61.027306" />
      <rect
         style="fill:#000000;stroke-width:0.223326"
         id="rect1276"
         width="3.0528829"
         height="12.211532"
         x="47.209423"
         y="61.027306" />
      <rect
         style="fill:#000000;stroke-width:0.353112"
         id="rect1278"
         width="30.528831"
         height="3.0528829"
         x="19.733467"
         y="57.974419" />
      <rect
         style="fill:#000000;stroke-width:0.157916"
         id="rect1280"
         width="6.1057658"
         height="3.0528829"
         x="50.262306"
         y="70.185959" />
      <rect
         style="fill:#000000;stroke-width:0.111663"
         id="rect1282"
         width="3.0528829"
         height="3.0528829"
         x="50.262306"
         y="61.027306" />
      <rect
         style="fill:#000000;stroke-width:0.157916"
         id="rect1284"
         width="6.1057658"
         height="3.0528829"
         x="-70.185959"
         y="-56.36808"
         transform="matrix(0,-1,-1,0,0,0)" />
      <rect
         style="fill:#000000;stroke-width:0.157916"
         id="rect1286"
         width="6.1057658"
         height="3.0528829"
         x="-48.815762"
         y="-25.839239"
         transform="matrix(0,-1,-1,0,0,0)" />
      <rect
         style="fill:#000000;stroke-width:0.157916"
         id="rect1288"
         width="6.1057658"
         height="3.0528829"
         x="-54.921532"
         y="-28.892126"
         transform="matrix(0,-1,-1,0,0,0)" />
      <rect
         style="fill:#000000;stroke-width:0.111663"
         id="rect1290"
         width="3.0528829"
         height="3.0528829"
         x="25.839239"
         y="39.657101" />
      <rect
         style="fill:#000000;stroke-width:0.111663"
         id="rect1292"
         width="3.0528829"
         height="3.0528829"
         x="34.997902"
         y="51.868637" />
      <rect
         style="fill:#000000;stroke-width:0.157916"
         id="rect1294"
         width="6.1057658"
         height="3.0528829"
         x="-51.868637"
         y="-34.997902"
         transform="matrix(0,-1,-1,0,0,0)" />
      <rect
         style="fill:#000000;stroke-width:0.157916"
         id="rect1296"
         width="6.1057658"
         height="3.0528829"
         x="-45.762871"
         y="-38.050789"
         transform="matrix(0,-1,-1,0,0,0)" />
      <rect
         style="fill:#000000;stroke-width:0.111663"
         id="rect1298"
         width="3.0528829"
         height="3.0528829"
         x="44.156559"
         y="39.657101" />
      <rect
         style="fill:#000000;stroke-width:0.157916"
         id="rect1300"
         width="6.1057658"
         height="3.0528829"
         x="-48.815762"
         y="-44.156559"
         transform="matrix(0,-1,-1,0,0,0)" />
      <rect
         style="fill:#000000;stroke-width:0.157916"
         id="rect1302"
         width="6.1057658"
         height="3.0528829"
         x="-54.921532"
         y="-47.209446"
         transform="matrix(0,-1,-1,0,0,0)" />
    </g>
    <g
       id="g8950"
       inkscape:export-filename="/home/adil/ymy-pixels-bot-image-1024.png"
       inkscape:export-xdpi="96"
       inkscape:export-ydpi="96"
       transform="matrix(0.09765626,0,0,0.09765626,196.30746,118.73288)">
      <g
         id="g23980"
         transform="matrix(5.1199999,0,0,5.1199999,-5275.3492,187.02374)"
         inkscape:export-filename="g23980.png"
         inkscape:export-xdpi="96"
         inkscape:export-ydpi="96">
        <g
           id="g23975">
          <rect
             style="fill:#c7c5c4;fill-opacity:1;stroke-width:0.17741"
             id="rect5280"
             width="270.93332"
             height="270.93332"
             x="773.19342"
             y="-45.394112" />
        </g>
        <path
           id="path5256"
           style="fill:#121416;fill-opacity:1;stroke-width:0.446656"
           d="M 865.91973,-1.5140496 V 10.697535 h 12.21154 V -1.5140496 Z m 0,12.2115846 H 853.7082 v 24.423039 h 12.21153 z m 0,24.423039 v 24.423103 h 12.21154 V 35.120574 Z M 902.55438,-1.5140496 V 22.909054 H 914.7659 V -1.5140496 Z m 0,24.4231036 h -12.21155 v 24.423104 h 12.21155 z m 0,24.423104 V 59.543677 H 914.7659 V 47.332158 Z M 939.189,-1.5140496 V 10.697535 h 12.21152 V -1.5140496 Z m 0,12.2115846 H 926.97749 V 35.120574 H 939.189 Z m 0,24.423039 v 24.423103 h 12.21152 V 35.120574 Z M 841.49661,71.75523 V 83.966781 132.81297 H 853.7082 V 83.966781 h 97.69232 v 48.846189 h 12.21159 24.42299 V 120.60145 96.178334 H 975.82363 V 120.60145 H 963.61211 V 96.178334 h 12.21152 V 83.966781 H 963.61211 V 71.75523 Z m 109.90391,61.05774 H 939.189 v 12.21152 H 865.91973 V 132.81297 H 853.7082 v 12.21152 h -24.4231 v 12.21154 12.21156 h 12.21151 v -12.21156 h 12.21159 97.69232 12.21159 v 12.21156 h 12.21152 v -12.21156 -12.21154 h -24.42311 z m 12.21159,36.63462 h -122.1155 v 12.21156 h 122.1155 z" />
      </g>
    </g>
    <g
       id="g5448"
       transform="rotate(90,13.119437,21.539861)">
      <rect
         style="fill:#c7c5c4;fill-opacity:1;fill-rule:evenodd;stroke-width:0.629663;stroke-linejoin:round;stroke-miterlimit:0;stroke-dasharray:1.25932, 0.629663;paint-order:markers fill stroke"
         id="rect4991"
         width="26.458332"
         height="26.458332"
         x="0"
         y="3.5527137e-15"
         ry="0.83132434" />
      <rect
         style="fill:#121416;fill-opacity:1;fill-rule:evenodd;stroke-width:0.629663;stroke-linejoin:round;stroke-miterlimit:0;stroke-dasharray:1.25932, 0.629663;paint-order:markers fill stroke"
         id="rect4993"
         width="26.458332"
         height="26.458332"
         x="26.458332"
         y="3.5527137e-15"
         ry="0.83132434" />
    </g>
  </g>
</svg>
